<mxfile host="app.diagrams.net" modified="2023-10-18T11:19:18.302Z" agent="Mozilla/5.0 (Windows NT 10.0; Win64; x64) AppleWebKit/537.36 (KHTML, like Gecko) Chrome/118.0.0.0 Safari/537.36" etag="SRDV0h5dkCUopBTR-jNI" version="22.0.4" type="device">
  <diagram name="Page-1" id="J3rLS7ioGoYsadzUOltX">
    <mxGraphModel dx="893" dy="470" grid="1" gridSize="10" guides="1" tooltips="1" connect="1" arrows="1" fold="1" page="1" pageScale="1" pageWidth="850" pageHeight="1100" math="0" shadow="0">
      <root>
        <mxCell id="0" />
        <mxCell id="1" parent="0" />
        <mxCell id="Q2OT-sCLzsQzSgtpaf37-2" value="Master" style="ellipse;whiteSpace=wrap;html=1;aspect=fixed;fillColor=#d5e8d4;strokeColor=#82b366;" vertex="1" parent="1">
          <mxGeometry x="150" y="290" width="80" height="80" as="geometry" />
        </mxCell>
        <mxCell id="Q2OT-sCLzsQzSgtpaf37-5" style="edgeStyle=orthogonalEdgeStyle;orthogonalLoop=1;jettySize=auto;html=1;strokeColor=default;curved=1;dashed=1;" edge="1" parent="1" source="Q2OT-sCLzsQzSgtpaf37-3" target="Q2OT-sCLzsQzSgtpaf37-2">
          <mxGeometry relative="1" as="geometry">
            <Array as="points">
              <mxPoint x="110" y="330" />
            </Array>
          </mxGeometry>
        </mxCell>
        <mxCell id="Q2OT-sCLzsQzSgtpaf37-6" value="Advertise(images)" style="edgeLabel;html=1;align=center;verticalAlign=middle;resizable=0;points=[];rotation=-60;" vertex="1" connectable="0" parent="Q2OT-sCLzsQzSgtpaf37-5">
          <mxGeometry x="-0.3651" y="-5" relative="1" as="geometry">
            <mxPoint x="-15" y="-22" as="offset" />
          </mxGeometry>
        </mxCell>
        <mxCell id="Q2OT-sCLzsQzSgtpaf37-3" value="Camera" style="ellipse;whiteSpace=wrap;html=1;aspect=fixed;fillColor=#dae8fc;strokeColor=#6c8ebf;" vertex="1" parent="1">
          <mxGeometry x="70" y="410" width="80" height="80" as="geometry" />
        </mxCell>
        <mxCell id="Q2OT-sCLzsQzSgtpaf37-4" value="Image&lt;br&gt;viewer" style="ellipse;whiteSpace=wrap;html=1;aspect=fixed;fillColor=#f8cecc;strokeColor=#b85450;" vertex="1" parent="1">
          <mxGeometry x="220" y="410" width="80" height="80" as="geometry" />
        </mxCell>
        <mxCell id="Q2OT-sCLzsQzSgtpaf37-7" value="Master" style="ellipse;whiteSpace=wrap;html=1;aspect=fixed;fillColor=#d5e8d4;strokeColor=#82b366;" vertex="1" parent="1">
          <mxGeometry x="420" y="290" width="80" height="80" as="geometry" />
        </mxCell>
        <mxCell id="Q2OT-sCLzsQzSgtpaf37-8" style="edgeStyle=orthogonalEdgeStyle;orthogonalLoop=1;jettySize=auto;html=1;strokeColor=default;curved=1;dashed=1;" edge="1" source="Q2OT-sCLzsQzSgtpaf37-11" target="Q2OT-sCLzsQzSgtpaf37-7" parent="1">
          <mxGeometry relative="1" as="geometry">
            <Array as="points">
              <mxPoint x="540" y="330" />
            </Array>
          </mxGeometry>
        </mxCell>
        <mxCell id="Q2OT-sCLzsQzSgtpaf37-9" value="Subscribe(images)" style="edgeLabel;html=1;align=center;verticalAlign=middle;resizable=0;points=[];rotation=60;" vertex="1" connectable="0" parent="Q2OT-sCLzsQzSgtpaf37-8">
          <mxGeometry x="-0.3651" y="-5" relative="1" as="geometry">
            <mxPoint x="5" y="-13" as="offset" />
          </mxGeometry>
        </mxCell>
        <mxCell id="Q2OT-sCLzsQzSgtpaf37-18" style="edgeStyle=orthogonalEdgeStyle;rounded=0;orthogonalLoop=1;jettySize=auto;html=1;" edge="1" parent="1" source="Q2OT-sCLzsQzSgtpaf37-10" target="Q2OT-sCLzsQzSgtpaf37-17">
          <mxGeometry relative="1" as="geometry">
            <Array as="points">
              <mxPoint x="380" y="525" />
            </Array>
          </mxGeometry>
        </mxCell>
        <mxCell id="Q2OT-sCLzsQzSgtpaf37-10" value="Camera" style="ellipse;whiteSpace=wrap;html=1;aspect=fixed;fillColor=#dae8fc;strokeColor=#6c8ebf;" vertex="1" parent="1">
          <mxGeometry x="340" y="410" width="80" height="80" as="geometry" />
        </mxCell>
        <mxCell id="Q2OT-sCLzsQzSgtpaf37-11" value="Image&lt;br&gt;viewer" style="ellipse;whiteSpace=wrap;html=1;aspect=fixed;fillColor=#f8cecc;strokeColor=#b85450;" vertex="1" parent="1">
          <mxGeometry x="490" y="410" width="80" height="80" as="geometry" />
        </mxCell>
        <mxCell id="Q2OT-sCLzsQzSgtpaf37-12" value="Master" style="ellipse;whiteSpace=wrap;html=1;aspect=fixed;fillColor=#d5e8d4;strokeColor=#82b366;" vertex="1" parent="1">
          <mxGeometry x="680" y="290" width="80" height="80" as="geometry" />
        </mxCell>
        <mxCell id="Q2OT-sCLzsQzSgtpaf37-15" value="Camera" style="ellipse;whiteSpace=wrap;html=1;aspect=fixed;fillColor=#dae8fc;strokeColor=#6c8ebf;" vertex="1" parent="1">
          <mxGeometry x="600" y="410" width="80" height="80" as="geometry" />
        </mxCell>
        <mxCell id="Q2OT-sCLzsQzSgtpaf37-21" style="edgeStyle=orthogonalEdgeStyle;rounded=0;orthogonalLoop=1;jettySize=auto;html=1;startArrow=classic;startFill=1;endArrow=none;endFill=0;" edge="1" parent="1" source="Q2OT-sCLzsQzSgtpaf37-16" target="Q2OT-sCLzsQzSgtpaf37-20">
          <mxGeometry relative="1" as="geometry">
            <Array as="points">
              <mxPoint x="790" y="525" />
            </Array>
          </mxGeometry>
        </mxCell>
        <mxCell id="Q2OT-sCLzsQzSgtpaf37-16" value="Image&lt;br&gt;viewer" style="ellipse;whiteSpace=wrap;html=1;aspect=fixed;fillColor=#f8cecc;strokeColor=#b85450;" vertex="1" parent="1">
          <mxGeometry x="750" y="410" width="80" height="80" as="geometry" />
        </mxCell>
        <mxCell id="Q2OT-sCLzsQzSgtpaf37-17" value="images" style="shape=note;whiteSpace=wrap;html=1;backgroundOutline=1;darkOpacity=0.05;" vertex="1" parent="1">
          <mxGeometry x="430" y="490" width="60" height="70" as="geometry" />
        </mxCell>
        <mxCell id="Q2OT-sCLzsQzSgtpaf37-19" style="edgeStyle=orthogonalEdgeStyle;rounded=0;orthogonalLoop=1;jettySize=auto;html=1;" edge="1" target="Q2OT-sCLzsQzSgtpaf37-20" parent="1">
          <mxGeometry relative="1" as="geometry">
            <mxPoint x="640" y="490" as="sourcePoint" />
            <Array as="points">
              <mxPoint x="640" y="525" />
            </Array>
          </mxGeometry>
        </mxCell>
        <mxCell id="Q2OT-sCLzsQzSgtpaf37-20" value="images" style="shape=note;whiteSpace=wrap;html=1;backgroundOutline=1;darkOpacity=0.05;" vertex="1" parent="1">
          <mxGeometry x="690" y="490" width="60" height="70" as="geometry" />
        </mxCell>
        <mxCell id="Q2OT-sCLzsQzSgtpaf37-22" value="(a)" style="text;html=1;align=center;verticalAlign=middle;resizable=0;points=[];autosize=1;strokeColor=none;fillColor=none;" vertex="1" parent="1">
          <mxGeometry x="170" y="560" width="40" height="30" as="geometry" />
        </mxCell>
        <mxCell id="Q2OT-sCLzsQzSgtpaf37-23" value="(b)" style="text;html=1;align=center;verticalAlign=middle;resizable=0;points=[];autosize=1;strokeColor=none;fillColor=none;" vertex="1" parent="1">
          <mxGeometry x="440" y="560" width="40" height="30" as="geometry" />
        </mxCell>
        <mxCell id="Q2OT-sCLzsQzSgtpaf37-24" value="(c)" style="text;html=1;align=center;verticalAlign=middle;resizable=0;points=[];autosize=1;strokeColor=none;fillColor=none;" vertex="1" parent="1">
          <mxGeometry x="700" y="560" width="40" height="30" as="geometry" />
        </mxCell>
      </root>
    </mxGraphModel>
  </diagram>
</mxfile>
